PathFileType	4	(X/Y/Z)	C:/Users/beibeiliu/ov580/test_trc/User1\sequence.27_training_dense_right.trc
DataRate	CameraRate	NumFrames	NumMarkers	Units	OrigDataRate	OrigDataStartFrame	OrigNumFrames
120	120	10	19	mm	120	195	259
Frame#	Time	ThumbCMC			ThumbMCP			ThumbIP			ThumbTip			IndexMCP			IndexPIP			IndexTip			MiddleMCP			MiddlePIP			MiddleTip			RingMCP			RingPIP			RingTip			PinkyMCP			PinkyPIP			PinkyTip			BackHand1			BackHand2			BackHand3	
		X0	Y0	Z0	X1	Y1	Z1	X2	Y2	Z2	X3	Y3	Z3	X4	Y4	Z4	X5	Y5	Z5	X6	Y6	Z6	X7	Y7	Z7	X8	Y8	Z8	X9	Y9	Z9	X10	Y10	Z10	X11	Y11	Z11	X12	Y12	Z12	X13	Y13	Z13	X14	Y14	Z14	X15	Y15	Z15	X16	Y16	Z16	X17	Y17	Z17	X18	Y18	Z18	
194	1.61667	186.768	-4.19161	65.9958	186.631	21.6092	42.4664	189.045	35.6437	19.7364	186.494	50.191	3.4064	179.321	-45.9656	-12.1105	176.311	-48.7193	-39.9447	162.15	-46.806	-63.6702	158.514	-71.5254	-11.6833	151.836	-79.8585	-38.2635	143.501	-82.8848	-67.3483	134.206	-72.7285	-2.95571	124.451	-78.5109	-29.5588	112.368	-75.5601	-53.8078	108.629	-61.8359	8.96904	94.2803	-58.5227	-5.97308	89.6545	-49.7302	-30.8062	145.808	-64.7681	47.6954	149.041	-63.865	83.5027	178.234	-46.6337	60.4003	
195	1.625	184.742	-11.3998	62.054	183.468	14.215	38.527	185.116	28.6613	19.4018	182.695	42.0842	-1.03627	180.882	-52.4339	-12.3881	178.791	-57.0233	-40.2115	167.256	-52.7224	-68.6221	163.204	-76.5631	-11.3451	156.494	-86.9164	-38.7849	143.997	-92.7886	-64.34	132.949	-79.628	-4.35534	125.157	-84.4243	-30.1308	113.403	-79.4723	-56.3846	107.701	-68.6129	8.61644	94.4158	-63.516	-8.10989	91.317	-51.1442	-35.8808	147.959	-67.4892	50.4108	147.483	-66.6538	82.8611	175.756	-51.1288	61.7362	
196	1.63333	183.873	-15.0147	61.9	181.644	8.7611	36.1453	182.258	22.289	15.7344	182.024	39.0469	-3.43991	183.96	-60.2253	-13.0827	179.454	-64.9579	-39.9801	169.171	-61.9033	-67.1045	163.624	-85.6644	-11.0032	158.489	-97.4996	-38.0978	147.234	-102.463	-69.2404	138.35	-86.453	-4.46282	125.253	-92.9352	-31.9878	112.437	-85.3879	-56.1834	111.972	-74.2137	8.36932	95.6169	-66.8078	-13.7047	88.746	-58.2811	-34.0318	145.686	-79.2566	48.4307	146.325	-71.3572	85.4777	175.357	-56.8414	60.1615	
197	1.64167	182.979	-20.1664	61.943	182.196	4.03227	32.6847	183.014	16.4897	10.6797	177.238	29.1891	-5.82056	184.554	-66.2804	-10.9044	180.233	-73.2701	-42.6558	167.319	-70.4689	-64.7801	167.391	-90.4746	-6.35516	163.17	-104.47	-33.8274	148.583	-111.063	-68.7168	141.103	-93.1792	-4.67302	126.884	-99.6982	-34.2416	117.961	-90.2138	-56.8361	109.742	-83.5143	10.4945	98.7593	-73.2867	-15.1611	95.9374	-58.0281	-34.5264	147.059	-82.308	47.4506	149.527	-74.0562	85.2047	179.808	-61.7397	60.1513	
198	1.65	181.854	-26.6344	59.9044	178.392	-4.15904	35.6149	180.014	8.83357	8.9422	175.778	23.9869	-13.9344	187.989	-72.1185	-8.81194	181.307	-80.9975	-41.6794	171.109	-74.345	-69.9364	165.245	-101.403	-5.66289	166.881	-113.176	-36.5884	154.558	-119.323	-66.6775	140.248	-101.448	-2.77989	131.024	-107.168	-35.9647	121.188	-95.3715	-56.1787	112.432	-90.5931	6.9902	100.148	-80.0345	-16.3584	97.0742	-64.1181	-34.6952	147.585	-87.8563	50.082	151.163	-82.3182	80.7514	176.152	-68.0534	61.2734	
199	1.65833	182.12	-32.9328	54.8497	179.567	-7.85088	27.5467	176.926	0.136596	2.7678	170.117	12.3528	-16.7042	185.909	-82.2243	-12.3009	186.034	-86.6199	-39.9862	169.751	-80.8926	-65.4241	168.434	-108.841	-6.04797	167.954	-120.327	-32.9026	152.649	-127.246	-65.7579	142.145	-109.029	-2.93663	135.969	-112.991	-35.6245	119.265	-100.247	-58.3647	114.116	-97.6445	9.10286	104.242	-86.7119	-18.4854	102.515	-65.6913	-34.8626	146.779	-96.5349	47.8117	149.091	-86.4471	83.8372	181.496	-72.3932	60.6508	
200	1.66667	181.417	-36.8579	56.7444	175.803	-14.4612	31.3051	173.861	-5.40243	1.50626	165.557	5.34607	-19.0291	188.375	-86.6483	-9.66948	182.327	-93.8976	-41.6013	166.801	-83.8898	-64.9037	167.704	-115.539	-5.69923	165.761	-128.585	-32.1554	153.728	-133.223	-63.8946	143.079	-116.619	-2.32185	133.74	-120.404	-34.5232	119.159	-105.535	-58.5332	115.481	-105.163	8.46935	109.5	-92.0123	-18.9498	105.828	-68.8772	-34.3768	151.992	-99.6591	49.7738	146.857	-92.1974	86.4732	178.6	-79.5731	60.7691	
201	1.675	183.126	-40.1127	58.6729	175.879	-19.4439	26.1176	171.734	-12.0643	3.41928	160.682	-3.96682	-21.1597	188.119	-93.181	-8.33958	178.767	-100.335	-41.0744	164.485	-85.615	-62.8695	167.462	-120.967	-3.30137	170.499	-133.617	-33.1507	155.7	-136.961	-67.1965	143.151	-121.276	0.697634	135.521	-127.862	-31.1681	126.806	-111.397	-57.3845	119.325	-109.302	9.49919	112.477	-101.408	-17.8023	109.934	-72.8326	-32.0147	146.403	-106.392	50.8629	149.623	-96.7309	83.8796	179.522	-80.7491	63.0381	
202	1.68333	181.574	-45.9418	55.1228	172.254	-25.6666	26.7713	168.792	-18.4992	-1.74437	155.56	-16.6678	-23.6764	188.489	-100.581	-11.1767	175.81	-103.407	-40.4825	158.48	-84.4979	-59.5884	171.869	-122.492	-1.86375	168.549	-139.327	-33.3005	159.844	-137.349	-63.922	148.474	-125.58	-1.34144	138.927	-130.835	-33.8734	128.307	-116.88	-55.18	121.379	-115.263	8.48532	119.48	-104.917	-17.9912	113.137	-78.6749	-32.6431	148.826	-110.267	54.8286	145.712	-101.052	83.9999	178.731	-87.405	63.1625	
203	1.69167	184.448	-46.9038	53.6116	173.731	-27.5348	25.0777	166.11	-25.7328	-3.08268	152.791	-22.7318	-26.6275	185.837	-103.82	-11.3718	174.889	-104.491	-40.2181	157.732	-77.8247	-57.3781	171.853	-129.734	-3.58651	169.741	-140.582	-32.4744	156.079	-139.194	-64.7138	146.786	-129.841	0.76652	141.597	-133.475	-34.2115	127.85	-118	-56.0282	126.714	-118.172	7.18913	123.283	-106.765	-17.4965	118.65	-84.0797	-31.1095	149.979	-112.478	54.1907	145.347	-103.375	89.1774	181.521	-91.9404	62.9926	
